<svg width="73" height="73" viewBox="0 0 73 73" fill="none" xmlns="http://www.w3.org/2000/svg">
<mask id="mask0_10_26" style="mask-type:alpha" maskUnits="userSpaceOnUse" x="1" y="1" width="70" height="70">
<circle cx="36" cy="36" r="35" fill="white"/>
</mask>
<g mask="url(#mask0_10_26)">
<path fill-rule="evenodd" clip-rule="evenodd" d="M73 0H0V73H73V0ZM32.3827 23.5C31.9328 23.5 31.4881 23.6554 31.0756 24.0596C30.9001 24.2315 30.7436 24.4118 30.6395 24.6361C30.5322 24.8673 30.5 25.1023 30.5 25.3545C30.5 25.8045 30.6627 26.2449 31.0756 26.6493L40.6027 35.9817L31.0756 45.3141C30.8085 45.5758 30.5 46.009 30.5 46.609C30.5 46.8611 30.5322 47.0962 30.6395 47.3274C30.7436 47.5517 30.9001 47.732 31.0756 47.9039C31.2463 48.0711 31.4717 48.1595 31.6704 48.2061C31.8786 48.2548 32.1089 48.2699 32.3379 48.2538C32.7839 48.2226 33.3118 48.0658 33.6899 47.6955L45.7545 35.8775L33.6899 24.0596C33.4215 23.7967 32.9838 23.5 32.3827 23.5Z" fill="white"/>
</g>
</svg>
