<svg width="76" height="76" viewBox="0 0 76 76" fill="none" xmlns="http://www.w3.org/2000/svg">
<mask id="mask0_9_26" style="mask-type:alpha" maskUnits="userSpaceOnUse" x="2" y="1" width="72" height="72">
<circle cx="38" cy="37" r="36" fill="white"/>
</mask>
<g mask="url(#mask0_9_26)">
<path fill-rule="evenodd" clip-rule="evenodd" d="M76.0571 -0.0285721H0.971436V75.0571H76.0571V-0.0285721ZM50.1084 26.5579C50.5527 26.1136 51.1081 25.8914 51.7746 25.8914C53.1077 25.8914 54.1074 27.0023 54.1074 28.2242C54.1074 28.8907 53.8853 29.4462 53.4409 29.8905L35.445 47.8864L24.1143 36.5557C23.781 36.2224 23.5589 35.667 23.5589 35.1115C23.5589 33.7785 24.6697 32.7787 25.8917 32.7787C26.4471 32.7787 27.0025 33.0009 27.4469 33.3342L35.445 41.3323L50.1084 26.5579Z" fill="white"/>
</g>
</svg>
