<svg width="16" height="16" viewBox="0 0 16 16" fill="none" xmlns="http://www.w3.org/2000/svg">
<path d="M9.71429 7.98319L15.6134 2.08403C16.084 1.61345 16.084 0.823529 15.6134 0.352941C15.1429 -0.117647 14.3529 -0.117647 13.8824 0.352941L7.98319 6.2521L2.08403 0.352941C1.61345 -0.117647 0.823529 -0.117647 0.352941 0.352941C-0.117647 0.823529 -0.117647 1.61345 0.352941 2.08403L6.2521 7.98319L0.352941 13.8824C-0.117647 14.3529 -0.117647 15.1429 0.352941 15.6134C0.588235 15.8487 0.907563 15.9664 1.22689 15.9664C1.54622 15.9664 1.84874 15.8487 2.10084 15.6134L8 9.71429L13.8992 15.6134C14.1345 15.8487 14.4538 15.9664 14.7731 15.9664C15.0924 15.9664 15.395 15.8487 15.6471 15.6134C16.1176 15.1429 16.1176 14.3529 15.6471 13.8824L9.71429 7.98319Z" fill="#FAFAFA"/>
</svg>
