<svg width="26" height="17" viewBox="0 0 26 17" fill="none" xmlns="http://www.w3.org/2000/svg">
<path fill-rule="evenodd" clip-rule="evenodd" d="M7.96004 0.371367L0.0400391 8.29137L7.96004 16.2114C8.10404 16.3554 8.32004 16.4994 8.60804 16.4994C8.82404 16.4994 9.04004 16.4274 9.25604 16.2114C9.40004 16.0674 9.54404 15.8514 9.54404 15.5634C9.54404 15.3474 9.47204 15.1314 9.25604 14.9154L3.56804 9.22737H16.816C17.032 9.22737 17.248 9.15537 17.464 8.93937C17.608 8.79537 17.752 8.57937 17.752 8.29137C17.752 8.07537 17.68 7.85937 17.464 7.64337C17.32 7.49937 17.104 7.35537 16.816 7.35537H3.42404L9.25604 1.52337C9.40004 1.37937 9.54404 1.16337 9.54404 0.875367C9.54404 0.659367 9.47204 0.443367 9.25604 0.227367C8.89604 0.0113671 8.32004 0.0113671 7.96004 0.371367" fill="#666666"/>
<path fill-rule="evenodd" clip-rule="evenodd" d="M17.6801 16.0674C15.0881 16.0674 12.6401 14.7714 11.2721 12.6114C10.9841 12.1794 11.1281 11.6034 11.5601 11.3874C11.9921 11.0994 12.5681 11.2434 12.7841 11.6754C13.8641 13.3314 15.7361 14.3394 17.6801 14.3394C20.9201 14.3394 23.5841 11.6754 23.5841 8.43536C23.5841 5.19536 20.9201 2.53136 17.6801 2.53136C15.7361 2.53136 13.8641 3.53936 12.7841 5.12336C12.4961 5.55536 11.9201 5.62736 11.5601 5.33936C11.1281 5.05136 11.0561 4.47536 11.3441 4.11536C12.7841 1.95536 15.1601 0.659363 17.7521 0.659363C22.0001 0.659363 25.4561 4.11536 25.4561 8.36336C25.4561 12.6114 21.9281 16.0674 17.6801 16.0674" fill="#666666"/>
</svg>
