<svg width="68" height="70" viewBox="0 0 68 70" fill="none" xmlns="http://www.w3.org/2000/svg">
<rect y="25.6523" width="2.99165" height="6.21875" fill="black"/>
<rect x="6.7312" y="25.6523" width="14.9582" height="3.10938" fill="black"/>
<rect x="15.7062" y="28.7617" width="8.97494" height="3.10938" fill="black"/>
<rect x="12.7145" y="31.8711" width="11.9666" height="3.10938" fill="black"/>
<rect x="18.6978" y="34.9805" width="2.99165" height="3.10938" fill="black"/>
<rect x="2.9917" y="31.8711" width="2.99165" height="10.1055" fill="black"/>
<rect x="5.98328" y="34.9805" width="2.99165" height="6.9961" fill="black"/>
<rect x="8.97498" y="34.9805" width="2.99165" height="3.10938" fill="black"/>
<rect y="41.9766" width="2.99165" height="6.21875" fill="black"/>
<rect x="2.9917" y="45.0859" width="5.98329" height="3.10938" fill="black"/>
<rect x="9.7229" y="19.4336" width="14.9582" height="3.10938" fill="black"/>
<rect x="15.7062" y="22.543" width="2.99165" height="3.10938" fill="black"/>
<rect x="21.6895" y="22.543" width="2.99165" height="3.10938" fill="black"/>
<rect x="21.6895" y="16.3242" width="5.98329" height="3.10938" fill="black"/>
<rect x="24.681" y="13.2148" width="2.99165" height="3.10938" fill="black"/>
<rect x="12.7145" y="16.3242" width="2.99165" height="3.10938" fill="black"/>
<rect x="15.7062" y="10.1055" width="2.99165" height="6.21875" fill="black"/>
<rect x="18.6978" y="6.21875" width="2.99165" height="6.21875" fill="black"/>
<rect x="18.6978" width="5.98329" height="3.10938" fill="black"/>
<rect x="21.6895" y="3.10938" width="8.97494" height="3.10938" fill="black"/>
<rect x="27.6727" width="5.98329" height="3.10938" fill="black"/>
<rect x="24.681" y="6.21875" width="5.98329" height="3.10938" fill="black"/>
<rect x="37.3955" width="8.97494" height="3.10938" fill="black"/>
<rect x="40.3872" y="3.10938" width="5.98329" height="3.10938" fill="black"/>
<rect x="37.3955" y="6.21875" width="5.23538" height="3.10938" fill="black"/>
<rect x="37.3955" y="9.32812" width="2.99165" height="3.10938" fill="black"/>
<rect x="43.3789" y="10.1055" width="2.99165" height="5.44141" fill="black"/>
<rect x="30.6643" y="10.1055" width="2.99165" height="5.44141" fill="black"/>
<rect x="33.656" y="13.2148" width="2.99165" height="15.5469" fill="black"/>
<rect x="28.4207" y="19.4336" width="5.23538" height="3.10938" fill="black"/>
<rect x="28.4207" y="22.543" width="2.99165" height="6.21875" fill="black"/>
<rect x="40.3872" y="16.3242" width="2.99165" height="6.21875" fill="black"/>
<rect x="43.3789" y="19.4336" width="5.98329" height="3.10938" fill="black"/>
<rect x="43.3789" y="22.543" width="2.99165" height="6.21875" fill="black"/>
<rect x="36.6477" y="25.6523" width="6.7312" height="3.10938" fill="black"/>
<rect x="37.3955" y="28.7617" width="5.98329" height="6.21875" fill="black"/>
<rect x="40.3872" y="34.9805" width="2.99165" height="10.1055" fill="black"/>
<rect x="43.3789" y="31.8711" width="2.99165" height="6.21875" fill="black"/>
<rect x="46.3705" y="35.7578" width="2.99165" height="9.32813" fill="black"/>
<rect x="49.3622" y="38.8672" width="2.99165" height="3.10938" fill="black"/>
<path fill-rule="evenodd" clip-rule="evenodd" d="M49.3622 18.6563V0H67.3121V18.6563H49.3622ZM52.3538 15.5469H64.3204V3.10938H52.3538V15.5469Z" fill="black"/>
<rect x="55.3455" y="6.21875" width="5.98329" height="6.21875" fill="black"/>
<path fill-rule="evenodd" clip-rule="evenodd" d="M49.3622 69.9609V51.3047H67.3121V69.9609H49.3622ZM52.3538 66.8516H64.3204V54.4141H52.3538V66.8516Z" fill="black"/>
<rect x="55.3455" y="57.5234" width="5.98329" height="6.21875" fill="black"/>
<path fill-rule="evenodd" clip-rule="evenodd" d="M0 69.9609V51.3047H17.9499V69.9609H0ZM2.99165 66.8516H14.9582V54.4141H2.99165V66.8516Z" fill="black"/>
<rect x="5.98328" y="57.5234" width="5.98329" height="6.21875" fill="black"/>
<rect x="12.7145" y="45.0859" width="11.9666" height="3.10938" fill="black"/>
<rect x="18.6978" y="48.1953" width="5.98329" height="3.10938" fill="black"/>
<rect x="14.9583" y="38.8672" width="2.99165" height="6.21875" fill="black"/>
<rect x="17.9498" y="41.9766" width="3.73956" height="3.10938" fill="black"/>
<rect x="21.6895" y="38.8672" width="2.99165" height="6.21875" fill="black"/>
<rect x="24.681" y="41.9766" width="2.99165" height="3.10938" fill="black"/>
<rect x="24.681" y="35.7578" width="8.97494" height="3.10938" fill="black"/>
<rect x="27.6727" y="31.8711" width="2.99165" height="3.88672" fill="black"/>
<rect x="21.6895" y="54.4141" width="2.99165" height="10.1055" fill="black"/>
<rect x="24.681" y="54.4141" width="2.99165" height="3.10938" fill="black"/>
<rect x="27.6727" y="45.0859" width="2.99165" height="9.32813" fill="black"/>
<rect x="30.6643" y="41.9766" width="2.99165" height="6.21875" fill="black"/>
<rect x="33.656" y="38.8672" width="2.99165" height="12.4375" fill="black"/>
<rect x="36.6477" y="48.1953" width="2.99165" height="3.10938" fill="black"/>
<rect x="37.3955" y="51.3047" width="5.98329" height="3.10938" fill="black"/>
<rect x="31.4122" y="54.4141" width="8.22703" height="3.10938" fill="black"/>
<rect x="31.4122" y="57.5234" width="5.23538" height="3.10938" fill="black"/>
<rect x="31.4122" y="60.6328" width="2.99165" height="9.32813" fill="black"/>
<rect x="25.429" y="64.5195" width="5.98329" height="3.10938" fill="black"/>
<rect x="28.4207" y="67.6289" width="2.99165" height="2.33203" fill="black"/>
<rect x="21.6895" y="67.6289" width="2.99165" height="2.33203" fill="black"/>
<rect x="37.3955" y="61.4102" width="2.24373" height="2.33203" fill="black"/>
<rect x="40.3872" y="64.5195" width="2.99165" height="3.10938" fill="black"/>
<rect x="37.3955" y="67.6289" width="8.97494" height="2.33203" fill="black"/>
<rect x="46.3705" y="45.0859" width="5.98329" height="3.10938" fill="black"/>
<rect x="49.3622" y="22.543" width="17.9499" height="3.10938" fill="black"/>
<rect x="49.3622" y="25.6523" width="8.97494" height="3.10938" fill="black"/>
<rect x="53.1017" y="28.7617" width="5.23538" height="3.10938" fill="black"/>
<rect x="49.3622" y="31.8711" width="5.98329" height="3.10938" fill="black"/>
<rect x="53.1017" y="34.9805" width="5.23538" height="3.10938" fill="black"/>
<rect x="64.3204" y="25.6523" width="2.99165" height="6.21875" fill="black"/>
<rect x="61.3287" y="29.5391" width="2.99165" height="5.44141" fill="black"/>
<rect x="64.3204" y="35.7578" width="2.99165" height="12.4375" fill="black"/>
<rect x="61.3287" y="38.8672" width="2.99165" height="5.44141" fill="black"/>
<rect x="55.3455" y="41.9766" width="2.99165" height="6.21875" fill="black"/>
<rect x="58.337" y="45.0859" width="2.99165" height="3.10938" fill="black"/>
<rect width="2.99165" height="9.32813" fill="black"/>
<rect x="9.7229" width="2.99165" height="12.4375" fill="black"/>
<rect x="12.7145" width="2.24373" height="3.10938" fill="black"/>
<rect x="6.7312" width="2.99165" height="6.21875" fill="black"/>
<rect y="19.4336" width="3.73956" height="3.10938" fill="black"/>
<rect x="3.7395" y="13.2148" width="2.99165" height="12.4375" fill="black"/>
<rect x="6.7312" y="13.2148" width="2.24373" height="3.10938" fill="black"/>
</svg>
