<svg width="50" height="44" viewBox="0 0 50 44" fill="none" xmlns="http://www.w3.org/2000/svg">
<mask id="mask0_24_394" style="mask-type:alpha" maskUnits="userSpaceOnUse" x="0" y="0" width="50" height="44">
<path fill-rule="evenodd" clip-rule="evenodd" d="M49.1276 43.437H0V0H49.1276V43.437Z" fill="white"/>
</mask>
<g mask="url(#mask0_24_394)">
<path fill-rule="evenodd" clip-rule="evenodd" d="M26.8938 22.6207L26.1851 28.8968H23.7438L23.0351 22.6207V18.5337H26.8938V22.6207ZM24.8851 35.4446C23.7438 35.4446 22.9438 34.6229 22.9438 33.4598C22.9438 32.2946 23.7438 31.4946 24.8851 31.4946C26.0264 31.4946 26.8481 32.2946 26.8481 33.4598C26.8481 34.6229 26.0264 35.4446 24.8851 35.4446ZM48.6329 39.6533L27.0981 1.57069C25.9198 -0.511914 23.972 -0.524957 22.7677 1.54026L0.517666 39.6816C-0.686681 41.7468 0.282884 43.4381 2.67419 43.4381H46.4242C48.8155 43.4381 49.809 41.7337 48.6329 39.6533Z" fill="#24B1FF"/>
</g>
</svg>
