<svg width="12" height="12" viewBox="0 0 12 12" fill="none" xmlns="http://www.w3.org/2000/svg">
<path fill-rule="evenodd" clip-rule="evenodd" d="M10.9023 5.41256C11.1357 5.63834 11.1357 5.9996 10.9957 6.22538C10.8556 6.36085 10.7156 6.40601 10.5756 6.40601C10.3888 6.40601 10.2488 6.3157 10.1554 6.22538L6.37417 2.56768V10.9668C6.37417 11.1475 6.28081 11.2829 6.18745 11.3733C6.0474 11.5087 5.90735 11.5539 5.76731 11.5539C5.58058 11.5539 5.44053 11.4636 5.34717 11.3733C5.20712 11.2378 5.16044 11.1023 5.16044 10.9668V2.658L1.47256 6.22538C1.33252 6.36085 1.19247 6.40601 1.05242 6.40601C0.865695 6.40601 0.725649 6.3157 0.632285 6.22538C0.492239 6.08991 0.445557 5.95444 0.445557 5.81897C0.445557 5.63834 0.538921 5.50287 0.632285 5.41256L5.76731 0.445312L10.9023 5.41256Z" fill="#FAFAFA"/>
</svg>
