<svg width="20" height="19" viewBox="0 0 20 19" fill="none" xmlns="http://www.w3.org/2000/svg">
<path d="M11.5421 9.48529L18.5512 2.47616C19.1104 1.91703 19.1104 0.978483 18.5512 0.41935C17.9921 -0.139783 17.0536 -0.139783 16.4944 0.41935L9.48529 7.42848L2.47616 0.41935C1.91703 -0.139783 0.978483 -0.139783 0.41935 0.41935C-0.139783 0.978483 -0.139783 1.91703 0.41935 2.47616L7.42848 9.48529L0.41935 16.4944C-0.139783 17.0536 -0.139783 17.9921 0.41935 18.5512C0.698916 18.8308 1.07833 18.9706 1.45774 18.9706C1.83715 18.9706 2.19659 18.8308 2.49613 18.5512L9.50526 11.5421L16.5144 18.5512C16.794 18.8308 17.1734 18.9706 17.5528 18.9706C17.9322 18.9706 18.2916 18.8308 18.5912 18.5512C19.1503 17.9921 19.1503 17.0536 18.5912 16.4944L11.5421 9.48529Z" fill="#333333"/>
</svg>
