<svg width="22" height="22" viewBox="0 0 22 22" fill="none" xmlns="http://www.w3.org/2000/svg">
<path fill-rule="evenodd" clip-rule="evenodd" d="M0.919922 21.7095H11.6407V7.74219H0.919922V21.7095ZM1.83864 20.7907H10.7213V8.66163H1.83864V20.7907Z" fill="#24B1FF"/>
<path fill-rule="evenodd" clip-rule="evenodd" d="M20.4619 5.10838C19.3595 2.96422 17.5214 1.37158 15.2548 0.636463C11.4568 -0.588977 7.2909 0.820063 5.02433 4.12846C4.96313 4.25086 4.96313 4.37326 4.96313 4.43446C4.96313 4.55686 5.02433 4.67926 5.14673 4.74118C5.26913 4.80238 5.39153 4.86358 5.45345 4.80238C5.57585 4.80238 5.69825 4.74118 5.75945 4.61806C7.78122 1.67758 11.5792 0.391663 15.01 1.49398C19.2976 2.90302 21.6261 7.49734 20.2171 11.7857C19.4819 13.991 17.8886 15.768 15.7451 16.6867L16.5415 14.9097C16.6027 14.7873 16.6027 14.6649 16.5415 14.6037C16.4803 14.4813 16.4183 14.4201 16.2959 14.3589C16.1735 14.2977 16.0511 14.2977 15.9899 14.3589C15.8675 14.4201 15.8063 14.4813 15.7451 14.6037L14.3973 17.7278L17.5214 19.0757C17.5826 19.0757 17.6438 19.1369 17.705 19.1369C17.8886 19.1369 18.0117 19.0757 18.1341 18.8921C18.1953 18.7697 18.1953 18.6465 18.1341 18.5853C18.0729 18.4629 18.0117 18.4017 17.8886 18.3405L15.9287 17.483L16.1735 17.3606C18.5013 16.3188 20.2171 14.3589 21.0134 11.9693C21.7485 9.7027 21.5642 7.31374 20.4619 5.10838" fill="#24B1FF"/>
</svg>
