<svg width="160" height="61" viewBox="0 0 160 61" fill="none" xmlns="http://www.w3.org/2000/svg">
<g id="LOGO">
<path id="Shape" fill-rule="evenodd" clip-rule="evenodd" d="M63.8505 30.1115C80.787 15.8094 99.5084 0 121.911 0C172.683 0 174.362 60.4589 116.876 60.4589C94.2172 60.4589 76.5938 50.8091 62.6419 38.993C49.7391 49.3321 36.9411 58.0957 22.9892 58.0957C-6.27819 58.0957 -7.74681 22.1551 19.4226 15.8532C20.3667 15.5578 20.3667 16.641 19.4226 16.8379C-1.34783 22.6475 -1.24293 53.4677 22.4647 53.4677C34.2137 53.4677 48.7949 43.2271 58.341 34.759C53.2008 29.9341 47.7459 24.223 43.6548 19.4965C43.2352 19.1027 43.3401 18.5119 43.7597 18.2164C44.0744 18.0195 44.7038 18.118 45.1234 18.6103C49.5293 23.5337 55.2988 28.7525 60.439 32.9865C61.5684 32.0387 62.7054 31.0785 63.8505 30.1115ZM65.2644 36.9253C80.6849 48.249 98.3083 55.7325 116.456 55.831C163.137 56.1264 162.088 6.30192 121.387 6.30192C102.41 6.30192 86.0332 19.8099 70.051 32.9927C68.4523 34.3114 66.8575 35.6269 65.2644 36.9253Z" fill="#333333"/>
<ellipse id="Oval" cx="31.801" cy="12.7023" rx="5.87447" ry="5.51417" fill="#333333"/>
</g>
</svg>
