<?xml version="1.0" standalone="no"?>
<!DOCTYPE svg PUBLIC "-//W3C//DTD SVG 20010904//EN"
 "http://www.w3.org/TR/2001/REC-SVG-20010904/DTD/svg10.dtd">
<svg version="1.0" xmlns="http://www.w3.org/2000/svg"
 width="292.000000pt" height="292.000000pt" viewBox="0 0 292.000000 292.000000"
 preserveAspectRatio="xMidYMid meet">
<metadata>
Created by potrace 1.14, written by Peter Selinger 2001-2017
</metadata>
<g transform="translate(0.000000,292.000000) scale(0.100000,-0.100000)"
fill="#000000" stroke="none">
<path d="M1319 2916 c-2 -2 -26 -6 -54 -10 -465 -57 -897 -365 -1108 -791 -75
-150 -123 -301 -144 -455 -14 -96 -8 -368 10 -455 25 -124 25 -124 53 -209 85
-257 268 -518 474 -676 25 -19 47 -37 50 -40 15 -16 146 -94 217 -130 78 -39
256 -103 318 -115 339 -65 631 -36 919 93 462 204 786 639 854 1142 15 113 6
369 -16 476 -47 222 -131 410 -260 584 -56 76 -213 238 -266 275 -15 11 -33
25 -40 30 -26 24 -176 114 -238 143 -198 93 -375 133 -604 138 -89 2 -163 2
-165 0z"/>
</g>
</svg>
